<svg xmlns="http://www.w3.org/2000/svg" viewBox="0 0 920 500" role="img">
<rect width="920" height="500" fill="#ffffff"/>
<style>text { font-family: Inter, Arial, sans-serif; fill:#1f2937; } .title { font-size:24px;font-weight:700; } .subtitle { font-size:13px;fill:#52606d; } .label { font-size:9px; } .value { font-size:7px;font-family:Menlo,monospace; }</style>
<text x="28" y="38" class="title">Observaciones por factor mensual</text>
<text x="28" y="62" class="subtitle">Base 72 x 36: el enlace 34→35 conserva 37 observaciones</text>
<line x1="85" y1="327.36842105263156" x2="885" y2="327.36842105263156" stroke="#a66f00" stroke-width="2" stroke-dasharray="6 5"/>
<rect x="87.0" y="126.4" width="18.9" height="303.6" fill="#3659a7"/>
<text x="96.4" y="453" class="label" text-anchor="middle">0→1</text>
<text x="96.4" y="121.38157894736844" class="label" text-anchor="middle">71</text>
<rect x="109.9" y="130.7" width="18.9" height="299.3" fill="#3659a7"/>
<rect x="132.7" y="134.9" width="18.9" height="295.1" fill="#3659a7"/>
<rect x="155.6" y="139.2" width="18.9" height="290.8" fill="#3659a7"/>
<rect x="178.4" y="143.5" width="18.9" height="286.5" fill="#3659a7"/>
<rect x="201.3" y="147.8" width="18.9" height="282.2" fill="#3659a7"/>
<text x="210.7" y="453" class="label" text-anchor="middle">5→6</text>
<text x="210.7" y="142.76315789473682" class="label" text-anchor="middle">66</text>
<rect x="224.1" y="152.0" width="18.9" height="278.0" fill="#3659a7"/>
<rect x="247.0" y="156.3" width="18.9" height="273.7" fill="#3659a7"/>
<rect x="269.9" y="160.6" width="18.9" height="269.4" fill="#3659a7"/>
<rect x="292.7" y="164.9" width="18.9" height="265.1" fill="#3659a7"/>
<rect x="315.6" y="169.1" width="18.9" height="260.9" fill="#3659a7"/>
<text x="325.0" y="453" class="label" text-anchor="middle">10→11</text>
<text x="325.0" y="164.14473684210526" class="label" text-anchor="middle">61</text>
<rect x="338.4" y="173.4" width="18.9" height="256.6" fill="#3659a7"/>
<rect x="361.3" y="177.7" width="18.9" height="252.3" fill="#3659a7"/>
<rect x="384.1" y="182.0" width="18.9" height="248.0" fill="#3659a7"/>
<rect x="407.0" y="186.2" width="18.9" height="243.8" fill="#3659a7"/>
<rect x="429.9" y="190.5" width="18.9" height="239.5" fill="#3659a7"/>
<text x="439.3" y="453" class="label" text-anchor="middle">15→16</text>
<text x="439.3" y="185.5263157894737" class="label" text-anchor="middle">56</text>
<rect x="452.7" y="194.8" width="18.9" height="235.2" fill="#3659a7"/>
<rect x="475.6" y="199.1" width="18.9" height="230.9" fill="#3659a7"/>
<rect x="498.4" y="203.4" width="18.9" height="226.6" fill="#3659a7"/>
<rect x="521.3" y="207.6" width="18.9" height="222.4" fill="#3659a7"/>
<rect x="544.1" y="211.9" width="18.9" height="218.1" fill="#3659a7"/>
<text x="553.6" y="453" class="label" text-anchor="middle">20→21</text>
<text x="553.6" y="206.9078947368421" class="label" text-anchor="middle">51</text>
<rect x="567.0" y="216.2" width="18.9" height="213.8" fill="#3659a7"/>
<rect x="589.9" y="220.5" width="18.9" height="209.5" fill="#3659a7"/>
<rect x="612.7" y="224.7" width="18.9" height="205.3" fill="#3659a7"/>
<rect x="635.6" y="229.0" width="18.9" height="201.0" fill="#3659a7"/>
<rect x="658.4" y="233.3" width="18.9" height="196.7" fill="#3659a7"/>
<text x="667.9" y="453" class="label" text-anchor="middle">25→26</text>
<text x="667.9" y="228.28947368421052" class="label" text-anchor="middle">46</text>
<rect x="681.3" y="237.6" width="18.9" height="192.4" fill="#3659a7"/>
<rect x="704.1" y="241.8" width="18.9" height="188.2" fill="#3659a7"/>
<rect x="727.0" y="246.1" width="18.9" height="183.9" fill="#3659a7"/>
<rect x="749.9" y="250.4" width="18.9" height="179.6" fill="#3659a7"/>
<rect x="772.7" y="254.7" width="18.9" height="175.3" fill="#3659a7"/>
<text x="782.1" y="453" class="label" text-anchor="middle">30→31</text>
<text x="782.1" y="249.67105263157893" class="label" text-anchor="middle">41</text>
<rect x="795.6" y="258.9" width="18.9" height="171.1" fill="#3659a7"/>
<rect x="818.4" y="263.2" width="18.9" height="166.8" fill="#3659a7"/>
<rect x="841.3" y="267.5" width="18.9" height="162.5" fill="#3659a7"/>
<rect x="864.1" y="271.8" width="18.9" height="158.2" fill="#3659a7"/>
<text x="873.6" y="453" class="label" text-anchor="middle">34→35</text>
<text x="873.6" y="266.77631578947364" class="label" text-anchor="middle">37</text>
</svg>
