<?xml version="1.0" encoding="UTF-8"?>
<svg xmlns="http://www.w3.org/2000/svg" width="1040" height="560" viewBox="0 0 1040 560" role="img" aria-label="Latest diagonal comparison: paid vs. incurred">
<style>text{font-family:Inter,ui-sans-serif,system-ui,-apple-system,BlinkMacSystemFont,'Segoe UI',sans-serif}.axis{font-size:11px;fill:#4B5563}.label{font-size:11px;fill:#111827}.legend{font-size:12px;fill:#111827}</style>
<rect x="0" y="0" width="100%" height="100%" fill="#FFFFFF"/>
<text x="24" y="34" font-size="20" font-weight="700" fill="#111827">Latest diagonal comparison: paid vs. incurred</text>
<text x="24" y="58" font-size="13" fill="#6B7280">Observed values by origin year; case reserve = incurred - paid</text>
<line x1="84" x2="1000" y1="468.0" y2="468.0" stroke="#E5E7EB"/>
<text x="74" y="472.0" class="axis" text-anchor="end">0</text>
<line x1="84" x2="1000" y1="392.8" y2="392.8" stroke="#E5E7EB"/>
<text x="74" y="396.8" class="axis" text-anchor="end">19</text>
<line x1="84" x2="1000" y1="317.6" y2="317.6" stroke="#E5E7EB"/>
<text x="74" y="321.6" class="axis" text-anchor="end">37</text>
<line x1="84" x2="1000" y1="242.4" y2="242.4" stroke="#E5E7EB"/>
<text x="74" y="246.4" class="axis" text-anchor="end">56</text>
<line x1="84" x2="1000" y1="167.2" y2="167.2" stroke="#E5E7EB"/>
<text x="74" y="171.2" class="axis" text-anchor="end">74</text>
<line x1="84" x2="1000" y1="92.0" y2="92.0" stroke="#E5E7EB"/>
<text x="74" y="96.0" class="axis" text-anchor="end">93</text>
<line x1="84" x2="84" y1="92" y2="468" stroke="#9CA3AF"/>
<line x1="84" x2="1000" y1="468" y2="468" stroke="#9CA3AF"/>
<text x="24" y="102" class="axis">Billions</text>
<rect x="91.3" y="289.7" width="22" height="178.3" fill="#2563EB" rx="2"/>
<rect x="118.8" y="288.8" width="22" height="179.2" fill="#059669" rx="2"/>
<rect x="146.3" y="467.1" width="22" height="0.9" fill="#F59E0B" rx="2"/>
<text x="129.8" y="490" class="axis" text-anchor="middle">2016</text>
<rect x="182.9" y="231.6" width="22" height="236.4" fill="#2563EB" rx="2"/>
<rect x="210.4" y="231.6" width="22" height="236.4" fill="#059669" rx="2"/>
<rect x="237.9" y="468.0" width="22" height="0.0" fill="#F59E0B" rx="2"/>
<text x="221.4" y="490" class="axis" text-anchor="middle">2017</text>
<rect x="274.5" y="252.5" width="22" height="215.5" fill="#2563EB" rx="2"/>
<rect x="302.0" y="244.9" width="22" height="223.1" fill="#059669" rx="2"/>
<rect x="329.5" y="460.4" width="22" height="7.6" fill="#F59E0B" rx="2"/>
<text x="313.0" y="490" class="axis" text-anchor="middle">2018</text>
<rect x="366.1" y="193.7" width="22" height="274.3" fill="#2563EB" rx="2"/>
<rect x="393.6" y="178.2" width="22" height="289.8" fill="#059669" rx="2"/>
<rect x="421.1" y="452.6" width="22" height="15.4" fill="#F59E0B" rx="2"/>
<text x="404.6" y="490" class="axis" text-anchor="middle">2019</text>
<rect x="457.7" y="170.7" width="22" height="297.3" fill="#2563EB" rx="2"/>
<rect x="485.2" y="149.9" width="22" height="318.1" fill="#059669" rx="2"/>
<rect x="512.7" y="447.2" width="22" height="20.8" fill="#F59E0B" rx="2"/>
<text x="496.2" y="490" class="axis" text-anchor="middle">2020</text>
<rect x="549.3" y="179.9" width="22" height="288.1" fill="#2563EB" rx="2"/>
<rect x="576.8" y="147.3" width="22" height="320.7" fill="#059669" rx="2"/>
<rect x="604.3" y="435.4" width="22" height="32.6" fill="#F59E0B" rx="2"/>
<text x="587.8" y="490" class="axis" text-anchor="middle">2021</text>
<rect x="640.9" y="225.0" width="22" height="243.0" fill="#2563EB" rx="2"/>
<rect x="668.4" y="169.1" width="22" height="298.9" fill="#059669" rx="2"/>
<rect x="695.9" y="412.1" width="22" height="55.9" fill="#F59E0B" rx="2"/>
<text x="679.4" y="490" class="axis" text-anchor="middle">2022</text>
<rect x="732.5" y="211.5" width="22" height="256.5" fill="#2563EB" rx="2"/>
<rect x="760.0" y="122.4" width="22" height="345.6" fill="#059669" rx="2"/>
<rect x="787.5" y="378.9" width="22" height="89.1" fill="#F59E0B" rx="2"/>
<text x="771.0" y="490" class="axis" text-anchor="middle">2023</text>
<rect x="824.1" y="248.1" width="22" height="219.9" fill="#2563EB" rx="2"/>
<rect x="851.6" y="119.9" width="22" height="348.1" fill="#059669" rx="2"/>
<rect x="879.1" y="339.7" width="22" height="128.3" fill="#F59E0B" rx="2"/>
<text x="862.6" y="490" class="axis" text-anchor="middle">2024</text>
<rect x="915.7" y="326.0" width="22" height="142.0" fill="#2563EB" rx="2"/>
<rect x="943.2" y="169.6" width="22" height="298.4" fill="#059669" rx="2"/>
<rect x="970.7" y="311.6" width="22" height="156.4" fill="#F59E0B" rx="2"/>
<text x="954.2" y="490" class="axis" text-anchor="middle">2025</text>
<rect x="84" y="518" width="16" height="16" fill="#2563EB" rx="2"/>
<text x="106" y="531" class="legend">Paid</text>
<rect x="234" y="518" width="16" height="16" fill="#059669" rx="2"/>
<text x="256" y="531" class="legend">Incurred</text>
<rect x="384" y="518" width="16" height="16" fill="#F59E0B" rx="2"/>
<text x="406" y="531" class="legend">Case reserve</text>
</svg>