<?xml version="1.0" encoding="UTF-8"?>
<svg xmlns="http://www.w3.org/2000/svg" width="1006" height="628" viewBox="0 0 1006 628" role="img" aria-label="Paid cumulative triangle">
<style>text{font-family:Inter,ui-sans-serif,system-ui,-apple-system,BlinkMacSystemFont,'Segoe UI',sans-serif}.h{font-size:11px;font-weight:700;fill:#111827}.v{font-size:11px;fill:#111827}.m{font-size:11px;fill:#6B7280}.a{font-size:12px;font-weight:600;fill:#374151}</style>
<rect x="0" y="0" width="100%" height="100%" fill="#FFFFFF"/>
<text x="24" y="34" font-size="20" font-weight="700" fill="#111827">Paid cumulative triangle</text>
<text x="24" y="58" font-size="13" fill="#6B7280">Paid basis: slower emergence and more explicit IBNR in immature years</text>
<text x="24" y="80" font-size="12" fill="#6B7280">Values in billions</text>
<text x="538" y="88" class="a" text-anchor="middle">Development age</text>
<text x="22" y="342" class="a" text-anchor="middle" transform="rotate(-90 22 342)">Origin year</text>
<rect x="118" y="90" width="84" height="42" fill="#EEF2FF" stroke="#CBD5E1"/>
<text x="160" y="116" class="h" text-anchor="middle">dev_0</text>
<rect x="202" y="90" width="84" height="42" fill="#EEF2FF" stroke="#CBD5E1"/>
<text x="244" y="116" class="h" text-anchor="middle">dev_1</text>
<rect x="286" y="90" width="84" height="42" fill="#EEF2FF" stroke="#CBD5E1"/>
<text x="328" y="116" class="h" text-anchor="middle">dev_2</text>
<rect x="370" y="90" width="84" height="42" fill="#EEF2FF" stroke="#CBD5E1"/>
<text x="412" y="116" class="h" text-anchor="middle">dev_3</text>
<rect x="454" y="90" width="84" height="42" fill="#EEF2FF" stroke="#CBD5E1"/>
<text x="496" y="116" class="h" text-anchor="middle">dev_4</text>
<rect x="538" y="90" width="84" height="42" fill="#EEF2FF" stroke="#CBD5E1"/>
<text x="580" y="116" class="h" text-anchor="middle">dev_5</text>
<rect x="622" y="90" width="84" height="42" fill="#EEF2FF" stroke="#CBD5E1"/>
<text x="664" y="116" class="h" text-anchor="middle">dev_6</text>
<rect x="706" y="90" width="84" height="42" fill="#EEF2FF" stroke="#CBD5E1"/>
<text x="748" y="116" class="h" text-anchor="middle">dev_7</text>
<rect x="790" y="90" width="84" height="42" fill="#EEF2FF" stroke="#CBD5E1"/>
<text x="832" y="116" class="h" text-anchor="middle">dev_8</text>
<rect x="874" y="90" width="84" height="42" fill="#EEF2FF" stroke="#CBD5E1"/>
<text x="916" y="116" class="h" text-anchor="middle">dev_9</text>
<rect x="36" y="132" width="82" height="42" fill="#EEF2FF" stroke="#CBD5E1"/>
<text x="77" y="158" class="h" text-anchor="middle">2016</text>
<rect x="118" y="132" width="84" height="42" fill="#DBEAFE" stroke="#CBD5E1"/>
<text x="160" y="158" class="v" text-anchor="middle">13.7</text>
<rect x="202" y="132" width="84" height="42" fill="#DBEAFE" stroke="#CBD5E1"/>
<text x="244" y="158" class="v" text-anchor="middle">23.1</text>
<rect x="286" y="132" width="84" height="42" fill="#DBEAFE" stroke="#CBD5E1"/>
<text x="328" y="158" class="v" text-anchor="middle">30.2</text>
<rect x="370" y="132" width="84" height="42" fill="#DBEAFE" stroke="#CBD5E1"/>
<text x="412" y="158" class="v" text-anchor="middle">35.2</text>
<rect x="454" y="132" width="84" height="42" fill="#DBEAFE" stroke="#CBD5E1"/>
<text x="496" y="158" class="v" text-anchor="middle">37.6</text>
<rect x="538" y="132" width="84" height="42" fill="#DBEAFE" stroke="#CBD5E1"/>
<text x="580" y="158" class="v" text-anchor="middle">40.7</text>
<rect x="622" y="132" width="84" height="42" fill="#DBEAFE" stroke="#CBD5E1"/>
<text x="664" y="158" class="v" text-anchor="middle">42.1</text>
<rect x="706" y="132" width="84" height="42" fill="#DBEAFE" stroke="#CBD5E1"/>
<text x="748" y="158" class="v" text-anchor="middle">42.6</text>
<rect x="790" y="132" width="84" height="42" fill="#DBEAFE" stroke="#CBD5E1"/>
<text x="832" y="158" class="v" text-anchor="middle">44.1</text>
<rect x="874" y="132" width="84" height="42" fill="#BBF7D0" stroke="#CBD5E1"/>
<text x="916" y="158" class="v" text-anchor="middle">44.1</text>
<rect x="36" y="174" width="82" height="42" fill="#EEF2FF" stroke="#CBD5E1"/>
<text x="77" y="200" class="h" text-anchor="middle">2017</text>
<rect x="118" y="174" width="84" height="42" fill="#DBEAFE" stroke="#CBD5E1"/>
<text x="160" y="200" class="v" text-anchor="middle">18.1</text>
<rect x="202" y="174" width="84" height="42" fill="#DBEAFE" stroke="#CBD5E1"/>
<text x="244" y="200" class="v" text-anchor="middle">30.6</text>
<rect x="286" y="174" width="84" height="42" fill="#DBEAFE" stroke="#CBD5E1"/>
<text x="328" y="200" class="v" text-anchor="middle">39.7</text>
<rect x="370" y="174" width="84" height="42" fill="#DBEAFE" stroke="#CBD5E1"/>
<text x="412" y="200" class="v" text-anchor="middle">46.1</text>
<rect x="454" y="174" width="84" height="42" fill="#DBEAFE" stroke="#CBD5E1"/>
<text x="496" y="200" class="v" text-anchor="middle">49.8</text>
<rect x="538" y="174" width="84" height="42" fill="#DBEAFE" stroke="#CBD5E1"/>
<text x="580" y="200" class="v" text-anchor="middle">54.0</text>
<rect x="622" y="174" width="84" height="42" fill="#DBEAFE" stroke="#CBD5E1"/>
<text x="664" y="200" class="v" text-anchor="middle">54.9</text>
<rect x="706" y="174" width="84" height="42" fill="#DBEAFE" stroke="#CBD5E1"/>
<text x="748" y="200" class="v" text-anchor="middle">56.4</text>
<rect x="790" y="174" width="84" height="42" fill="#BBF7D0" stroke="#CBD5E1"/>
<text x="832" y="200" class="v" text-anchor="middle">58.5</text>
<rect x="874" y="174" width="84" height="42" fill="#F3F4F6" stroke="#CBD5E1"/>
<text x="916" y="200" class="m" text-anchor="middle">—</text>
<rect x="36" y="216" width="82" height="42" fill="#EEF2FF" stroke="#CBD5E1"/>
<text x="77" y="242" class="h" text-anchor="middle">2018</text>
<rect x="118" y="216" width="84" height="42" fill="#DBEAFE" stroke="#CBD5E1"/>
<text x="160" y="242" class="v" text-anchor="middle">17.3</text>
<rect x="202" y="216" width="84" height="42" fill="#DBEAFE" stroke="#CBD5E1"/>
<text x="244" y="242" class="v" text-anchor="middle">28.8</text>
<rect x="286" y="216" width="84" height="42" fill="#DBEAFE" stroke="#CBD5E1"/>
<text x="328" y="242" class="v" text-anchor="middle">36.8</text>
<rect x="370" y="216" width="84" height="42" fill="#DBEAFE" stroke="#CBD5E1"/>
<text x="412" y="242" class="v" text-anchor="middle">44.2</text>
<rect x="454" y="216" width="84" height="42" fill="#DBEAFE" stroke="#CBD5E1"/>
<text x="496" y="242" class="v" text-anchor="middle">46.9</text>
<rect x="538" y="216" width="84" height="42" fill="#DBEAFE" stroke="#CBD5E1"/>
<text x="580" y="242" class="v" text-anchor="middle">49.4</text>
<rect x="622" y="216" width="84" height="42" fill="#DBEAFE" stroke="#CBD5E1"/>
<text x="664" y="242" class="v" text-anchor="middle">53.3</text>
<rect x="706" y="216" width="84" height="42" fill="#BBF7D0" stroke="#CBD5E1"/>
<text x="748" y="242" class="v" text-anchor="middle">53.3</text>
<rect x="790" y="216" width="84" height="42" fill="#F3F4F6" stroke="#CBD5E1"/>
<text x="832" y="242" class="m" text-anchor="middle">—</text>
<rect x="874" y="216" width="84" height="42" fill="#F3F4F6" stroke="#CBD5E1"/>
<text x="916" y="242" class="m" text-anchor="middle">—</text>
<rect x="36" y="258" width="82" height="42" fill="#EEF2FF" stroke="#CBD5E1"/>
<text x="77" y="284" class="h" text-anchor="middle">2019</text>
<rect x="118" y="258" width="84" height="42" fill="#DBEAFE" stroke="#CBD5E1"/>
<text x="160" y="284" class="v" text-anchor="middle">22.2</text>
<rect x="202" y="258" width="84" height="42" fill="#DBEAFE" stroke="#CBD5E1"/>
<text x="244" y="284" class="v" text-anchor="middle">38.6</text>
<rect x="286" y="258" width="84" height="42" fill="#DBEAFE" stroke="#CBD5E1"/>
<text x="328" y="284" class="v" text-anchor="middle">49.3</text>
<rect x="370" y="258" width="84" height="42" fill="#DBEAFE" stroke="#CBD5E1"/>
<text x="412" y="284" class="v" text-anchor="middle">57.3</text>
<rect x="454" y="258" width="84" height="42" fill="#DBEAFE" stroke="#CBD5E1"/>
<text x="496" y="284" class="v" text-anchor="middle">62.0</text>
<rect x="538" y="258" width="84" height="42" fill="#DBEAFE" stroke="#CBD5E1"/>
<text x="580" y="284" class="v" text-anchor="middle">66.4</text>
<rect x="622" y="258" width="84" height="42" fill="#BBF7D0" stroke="#CBD5E1"/>
<text x="664" y="284" class="v" text-anchor="middle">67.8</text>
<rect x="706" y="258" width="84" height="42" fill="#F3F4F6" stroke="#CBD5E1"/>
<text x="748" y="284" class="m" text-anchor="middle">—</text>
<rect x="790" y="258" width="84" height="42" fill="#F3F4F6" stroke="#CBD5E1"/>
<text x="832" y="284" class="m" text-anchor="middle">—</text>
<rect x="874" y="258" width="84" height="42" fill="#F3F4F6" stroke="#CBD5E1"/>
<text x="916" y="284" class="m" text-anchor="middle">—</text>
<rect x="36" y="300" width="82" height="42" fill="#EEF2FF" stroke="#CBD5E1"/>
<text x="77" y="326" class="h" text-anchor="middle">2020</text>
<rect x="118" y="300" width="84" height="42" fill="#DBEAFE" stroke="#CBD5E1"/>
<text x="160" y="326" class="v" text-anchor="middle">24.9</text>
<rect x="202" y="300" width="84" height="42" fill="#DBEAFE" stroke="#CBD5E1"/>
<text x="244" y="326" class="v" text-anchor="middle">42.1</text>
<rect x="286" y="300" width="84" height="42" fill="#DBEAFE" stroke="#CBD5E1"/>
<text x="328" y="326" class="v" text-anchor="middle">53.8</text>
<rect x="370" y="300" width="84" height="42" fill="#DBEAFE" stroke="#CBD5E1"/>
<text x="412" y="326" class="v" text-anchor="middle">62.8</text>
<rect x="454" y="300" width="84" height="42" fill="#DBEAFE" stroke="#CBD5E1"/>
<text x="496" y="326" class="v" text-anchor="middle">67.6</text>
<rect x="538" y="300" width="84" height="42" fill="#BBF7D0" stroke="#CBD5E1"/>
<text x="580" y="326" class="v" text-anchor="middle">73.5</text>
<rect x="622" y="300" width="84" height="42" fill="#F3F4F6" stroke="#CBD5E1"/>
<text x="664" y="326" class="m" text-anchor="middle">—</text>
<rect x="706" y="300" width="84" height="42" fill="#F3F4F6" stroke="#CBD5E1"/>
<text x="748" y="326" class="m" text-anchor="middle">—</text>
<rect x="790" y="300" width="84" height="42" fill="#F3F4F6" stroke="#CBD5E1"/>
<text x="832" y="326" class="m" text-anchor="middle">—</text>
<rect x="874" y="300" width="84" height="42" fill="#F3F4F6" stroke="#CBD5E1"/>
<text x="916" y="326" class="m" text-anchor="middle">—</text>
<rect x="36" y="342" width="82" height="42" fill="#EEF2FF" stroke="#CBD5E1"/>
<text x="77" y="368" class="h" text-anchor="middle">2021</text>
<rect x="118" y="342" width="84" height="42" fill="#DBEAFE" stroke="#CBD5E1"/>
<text x="160" y="368" class="v" text-anchor="middle">25.8</text>
<rect x="202" y="342" width="84" height="42" fill="#DBEAFE" stroke="#CBD5E1"/>
<text x="244" y="368" class="v" text-anchor="middle">43.9</text>
<rect x="286" y="342" width="84" height="42" fill="#DBEAFE" stroke="#CBD5E1"/>
<text x="328" y="368" class="v" text-anchor="middle">55.6</text>
<rect x="370" y="342" width="84" height="42" fill="#DBEAFE" stroke="#CBD5E1"/>
<text x="412" y="368" class="v" text-anchor="middle">65.1</text>
<rect x="454" y="342" width="84" height="42" fill="#BBF7D0" stroke="#CBD5E1"/>
<text x="496" y="368" class="v" text-anchor="middle">71.2</text>
<rect x="538" y="342" width="84" height="42" fill="#F3F4F6" stroke="#CBD5E1"/>
<text x="580" y="368" class="m" text-anchor="middle">—</text>
<rect x="622" y="342" width="84" height="42" fill="#F3F4F6" stroke="#CBD5E1"/>
<text x="664" y="368" class="m" text-anchor="middle">—</text>
<rect x="706" y="342" width="84" height="42" fill="#F3F4F6" stroke="#CBD5E1"/>
<text x="748" y="368" class="m" text-anchor="middle">—</text>
<rect x="790" y="342" width="84" height="42" fill="#F3F4F6" stroke="#CBD5E1"/>
<text x="832" y="368" class="m" text-anchor="middle">—</text>
<rect x="874" y="342" width="84" height="42" fill="#F3F4F6" stroke="#CBD5E1"/>
<text x="916" y="368" class="m" text-anchor="middle">—</text>
<rect x="36" y="384" width="82" height="42" fill="#EEF2FF" stroke="#CBD5E1"/>
<text x="77" y="410" class="h" text-anchor="middle">2022</text>
<rect x="118" y="384" width="84" height="42" fill="#DBEAFE" stroke="#CBD5E1"/>
<text x="160" y="410" class="v" text-anchor="middle">23.8</text>
<rect x="202" y="384" width="84" height="42" fill="#DBEAFE" stroke="#CBD5E1"/>
<text x="244" y="410" class="v" text-anchor="middle">40.5</text>
<rect x="286" y="384" width="84" height="42" fill="#DBEAFE" stroke="#CBD5E1"/>
<text x="328" y="410" class="v" text-anchor="middle">53.3</text>
<rect x="370" y="384" width="84" height="42" fill="#BBF7D0" stroke="#CBD5E1"/>
<text x="412" y="410" class="v" text-anchor="middle">60.1</text>
<rect x="454" y="384" width="84" height="42" fill="#F3F4F6" stroke="#CBD5E1"/>
<text x="496" y="410" class="m" text-anchor="middle">—</text>
<rect x="538" y="384" width="84" height="42" fill="#F3F4F6" stroke="#CBD5E1"/>
<text x="580" y="410" class="m" text-anchor="middle">—</text>
<rect x="622" y="384" width="84" height="42" fill="#F3F4F6" stroke="#CBD5E1"/>
<text x="664" y="410" class="m" text-anchor="middle">—</text>
<rect x="706" y="384" width="84" height="42" fill="#F3F4F6" stroke="#CBD5E1"/>
<text x="748" y="410" class="m" text-anchor="middle">—</text>
<rect x="790" y="384" width="84" height="42" fill="#F3F4F6" stroke="#CBD5E1"/>
<text x="832" y="410" class="m" text-anchor="middle">—</text>
<rect x="874" y="384" width="84" height="42" fill="#F3F4F6" stroke="#CBD5E1"/>
<text x="916" y="410" class="m" text-anchor="middle">—</text>
<rect x="36" y="426" width="82" height="42" fill="#EEF2FF" stroke="#CBD5E1"/>
<text x="77" y="452" class="h" text-anchor="middle">2023</text>
<rect x="118" y="426" width="84" height="42" fill="#DBEAFE" stroke="#CBD5E1"/>
<text x="160" y="452" class="v" text-anchor="middle">28.9</text>
<rect x="202" y="426" width="84" height="42" fill="#DBEAFE" stroke="#CBD5E1"/>
<text x="244" y="452" class="v" text-anchor="middle">48.7</text>
<rect x="286" y="426" width="84" height="42" fill="#BBF7D0" stroke="#CBD5E1"/>
<text x="328" y="452" class="v" text-anchor="middle">63.4</text>
<rect x="370" y="426" width="84" height="42" fill="#F3F4F6" stroke="#CBD5E1"/>
<text x="412" y="452" class="m" text-anchor="middle">—</text>
<rect x="454" y="426" width="84" height="42" fill="#F3F4F6" stroke="#CBD5E1"/>
<text x="496" y="452" class="m" text-anchor="middle">—</text>
<rect x="538" y="426" width="84" height="42" fill="#F3F4F6" stroke="#CBD5E1"/>
<text x="580" y="452" class="m" text-anchor="middle">—</text>
<rect x="622" y="426" width="84" height="42" fill="#F3F4F6" stroke="#CBD5E1"/>
<text x="664" y="452" class="m" text-anchor="middle">—</text>
<rect x="706" y="426" width="84" height="42" fill="#F3F4F6" stroke="#CBD5E1"/>
<text x="748" y="452" class="m" text-anchor="middle">—</text>
<rect x="790" y="426" width="84" height="42" fill="#F3F4F6" stroke="#CBD5E1"/>
<text x="832" y="452" class="m" text-anchor="middle">—</text>
<rect x="874" y="426" width="84" height="42" fill="#F3F4F6" stroke="#CBD5E1"/>
<text x="916" y="452" class="m" text-anchor="middle">—</text>
<rect x="36" y="468" width="82" height="42" fill="#EEF2FF" stroke="#CBD5E1"/>
<text x="77" y="494" class="h" text-anchor="middle">2024</text>
<rect x="118" y="468" width="84" height="42" fill="#DBEAFE" stroke="#CBD5E1"/>
<text x="160" y="494" class="v" text-anchor="middle">32.1</text>
<rect x="202" y="468" width="84" height="42" fill="#BBF7D0" stroke="#CBD5E1"/>
<text x="244" y="494" class="v" text-anchor="middle">54.4</text>
<rect x="286" y="468" width="84" height="42" fill="#F3F4F6" stroke="#CBD5E1"/>
<text x="328" y="494" class="m" text-anchor="middle">—</text>
<rect x="370" y="468" width="84" height="42" fill="#F3F4F6" stroke="#CBD5E1"/>
<text x="412" y="494" class="m" text-anchor="middle">—</text>
<rect x="454" y="468" width="84" height="42" fill="#F3F4F6" stroke="#CBD5E1"/>
<text x="496" y="494" class="m" text-anchor="middle">—</text>
<rect x="538" y="468" width="84" height="42" fill="#F3F4F6" stroke="#CBD5E1"/>
<text x="580" y="494" class="m" text-anchor="middle">—</text>
<rect x="622" y="468" width="84" height="42" fill="#F3F4F6" stroke="#CBD5E1"/>
<text x="664" y="494" class="m" text-anchor="middle">—</text>
<rect x="706" y="468" width="84" height="42" fill="#F3F4F6" stroke="#CBD5E1"/>
<text x="748" y="494" class="m" text-anchor="middle">—</text>
<rect x="790" y="468" width="84" height="42" fill="#F3F4F6" stroke="#CBD5E1"/>
<text x="832" y="494" class="m" text-anchor="middle">—</text>
<rect x="874" y="468" width="84" height="42" fill="#F3F4F6" stroke="#CBD5E1"/>
<text x="916" y="494" class="m" text-anchor="middle">—</text>
<rect x="36" y="510" width="82" height="42" fill="#EEF2FF" stroke="#CBD5E1"/>
<text x="77" y="536" class="h" text-anchor="middle">2025</text>
<rect x="118" y="510" width="84" height="42" fill="#BBF7D0" stroke="#CBD5E1"/>
<text x="160" y="536" class="v" text-anchor="middle">35.1</text>
<rect x="202" y="510" width="84" height="42" fill="#F3F4F6" stroke="#CBD5E1"/>
<text x="244" y="536" class="m" text-anchor="middle">—</text>
<rect x="286" y="510" width="84" height="42" fill="#F3F4F6" stroke="#CBD5E1"/>
<text x="328" y="536" class="m" text-anchor="middle">—</text>
<rect x="370" y="510" width="84" height="42" fill="#F3F4F6" stroke="#CBD5E1"/>
<text x="412" y="536" class="m" text-anchor="middle">—</text>
<rect x="454" y="510" width="84" height="42" fill="#F3F4F6" stroke="#CBD5E1"/>
<text x="496" y="536" class="m" text-anchor="middle">—</text>
<rect x="538" y="510" width="84" height="42" fill="#F3F4F6" stroke="#CBD5E1"/>
<text x="580" y="536" class="m" text-anchor="middle">—</text>
<rect x="622" y="510" width="84" height="42" fill="#F3F4F6" stroke="#CBD5E1"/>
<text x="664" y="536" class="m" text-anchor="middle">—</text>
<rect x="706" y="510" width="84" height="42" fill="#F3F4F6" stroke="#CBD5E1"/>
<text x="748" y="536" class="m" text-anchor="middle">—</text>
<rect x="790" y="510" width="84" height="42" fill="#F3F4F6" stroke="#CBD5E1"/>
<text x="832" y="536" class="m" text-anchor="middle">—</text>
<rect x="874" y="510" width="84" height="42" fill="#F3F4F6" stroke="#CBD5E1"/>
<text x="916" y="536" class="m" text-anchor="middle">—</text>
<rect x="118" y="586" width="16" height="16" fill="#DBEAFE" stroke="#CBD5E1"/>
<text x="140" y="599" font-size="11" fill="#111827">Observed</text>
<rect x="298" y="586" width="16" height="16" fill="#BBF7D0" stroke="#CBD5E1"/>
<text x="320" y="599" font-size="11" fill="#111827">Latest diagonal</text>
<rect x="478" y="586" width="16" height="16" fill="#F3F4F6" stroke="#CBD5E1"/>
<text x="500" y="599" font-size="11" fill="#111827">Unobserved</text>
</svg>