<?xml version="1.0" encoding="UTF-8"?>
<svg xmlns="http://www.w3.org/2000/svg" width="1006" height="628" viewBox="0 0 1006 628" role="img" aria-label="Triángulo pagado acumulado">
<defs>
<style>
text { font-family: Inter, ui-sans-serif, system-ui, -apple-system, BlinkMacSystemFont, 'Segoe UI', sans-serif; }
.cell-value { font-size: 11px; fill: #111827; }
.axis-label { font-size: 12px; fill: #374151; font-weight: 600; }
.header { font-size: 11px; fill: #111827; font-weight: 700; }
.muted { font-size: 11px; fill: #6B7280; }
</style>
</defs>
<rect x="0" y="0" width="1006" height="628" fill="#FFFFFF"/>
<text x="24" y="34" text-anchor="start" font-size="20" font-weight="700" fill="#111827">Triángulo pagado acumulado</text>
<text x="24" y="58" text-anchor="start" font-size="13" fill="#6B7280">Estructura actuarial tradicional: año de origen × edad de desarrollo</text>
<text x="24" y="80" text-anchor="start" font-size="12" fill="#6B7280">Valores en miles de millones</text>
<text x="538" y="88" class="axis-label" text-anchor="middle">Edad de desarrollo</text>
<text x="22" y="342" class="axis-label" text-anchor="middle" transform="rotate(-90 22 342)">Año origen</text>
<rect x="118" y="90" width="840" height="42" fill="#EEF2FF" stroke="#CBD5E1"/>
<rect x="118" y="90" width="84" height="42" fill="transparent" stroke="#CBD5E1"/>
<text x="160" y="116" class="header" text-anchor="middle">dev_0</text>
<rect x="202" y="90" width="84" height="42" fill="transparent" stroke="#CBD5E1"/>
<text x="244" y="116" class="header" text-anchor="middle">dev_1</text>
<rect x="286" y="90" width="84" height="42" fill="transparent" stroke="#CBD5E1"/>
<text x="328" y="116" class="header" text-anchor="middle">dev_2</text>
<rect x="370" y="90" width="84" height="42" fill="transparent" stroke="#CBD5E1"/>
<text x="412" y="116" class="header" text-anchor="middle">dev_3</text>
<rect x="454" y="90" width="84" height="42" fill="transparent" stroke="#CBD5E1"/>
<text x="496" y="116" class="header" text-anchor="middle">dev_4</text>
<rect x="538" y="90" width="84" height="42" fill="transparent" stroke="#CBD5E1"/>
<text x="580" y="116" class="header" text-anchor="middle">dev_5</text>
<rect x="622" y="90" width="84" height="42" fill="transparent" stroke="#CBD5E1"/>
<text x="664" y="116" class="header" text-anchor="middle">dev_6</text>
<rect x="706" y="90" width="84" height="42" fill="transparent" stroke="#CBD5E1"/>
<text x="748" y="116" class="header" text-anchor="middle">dev_7</text>
<rect x="790" y="90" width="84" height="42" fill="transparent" stroke="#CBD5E1"/>
<text x="832" y="116" class="header" text-anchor="middle">dev_8</text>
<rect x="874" y="90" width="84" height="42" fill="transparent" stroke="#CBD5E1"/>
<text x="916" y="116" class="header" text-anchor="middle">dev_9</text>
<rect x="36" y="132" width="82" height="42" fill="#EEF2FF" stroke="#CBD5E1"/>
<text x="77" y="158" class="header" text-anchor="middle">2016</text>
<rect x="118" y="132" width="84" height="42" fill="#DBEAFE" stroke="#CBD5E1"/>
<text x="160" y="158" class="cell-value" text-anchor="middle">5.5</text>
<rect x="202" y="132" width="84" height="42" fill="#DBEAFE" stroke="#CBD5E1"/>
<text x="244" y="158" class="cell-value" text-anchor="middle">8.9</text>
<rect x="286" y="132" width="84" height="42" fill="#DBEAFE" stroke="#CBD5E1"/>
<text x="328" y="158" class="cell-value" text-anchor="middle">10.8</text>
<rect x="370" y="132" width="84" height="42" fill="#DBEAFE" stroke="#CBD5E1"/>
<text x="412" y="158" class="cell-value" text-anchor="middle">12.1</text>
<rect x="454" y="132" width="84" height="42" fill="#DBEAFE" stroke="#CBD5E1"/>
<text x="496" y="158" class="cell-value" text-anchor="middle">13.0</text>
<rect x="538" y="132" width="84" height="42" fill="#DBEAFE" stroke="#CBD5E1"/>
<text x="580" y="158" class="cell-value" text-anchor="middle">13.5</text>
<rect x="622" y="132" width="84" height="42" fill="#DBEAFE" stroke="#CBD5E1"/>
<text x="664" y="158" class="cell-value" text-anchor="middle">13.9</text>
<rect x="706" y="132" width="84" height="42" fill="#DBEAFE" stroke="#CBD5E1"/>
<text x="748" y="158" class="cell-value" text-anchor="middle">14.1</text>
<rect x="790" y="132" width="84" height="42" fill="#DBEAFE" stroke="#CBD5E1"/>
<text x="832" y="158" class="cell-value" text-anchor="middle">14.3</text>
<rect x="874" y="132" width="84" height="42" fill="#BBF7D0" stroke="#CBD5E1"/>
<text x="916" y="158" class="cell-value" text-anchor="middle">14.4</text>
<rect x="36" y="174" width="82" height="42" fill="#EEF2FF" stroke="#CBD5E1"/>
<text x="77" y="200" class="header" text-anchor="middle">2017</text>
<rect x="118" y="174" width="84" height="42" fill="#DBEAFE" stroke="#CBD5E1"/>
<text x="160" y="200" class="cell-value" text-anchor="middle">5.3</text>
<rect x="202" y="174" width="84" height="42" fill="#DBEAFE" stroke="#CBD5E1"/>
<text x="244" y="200" class="cell-value" text-anchor="middle">8.8</text>
<rect x="286" y="174" width="84" height="42" fill="#DBEAFE" stroke="#CBD5E1"/>
<text x="328" y="200" class="cell-value" text-anchor="middle">10.8</text>
<rect x="370" y="174" width="84" height="42" fill="#DBEAFE" stroke="#CBD5E1"/>
<text x="412" y="200" class="cell-value" text-anchor="middle">11.9</text>
<rect x="454" y="174" width="84" height="42" fill="#DBEAFE" stroke="#CBD5E1"/>
<text x="496" y="200" class="cell-value" text-anchor="middle">12.9</text>
<rect x="538" y="174" width="84" height="42" fill="#DBEAFE" stroke="#CBD5E1"/>
<text x="580" y="200" class="cell-value" text-anchor="middle">13.6</text>
<rect x="622" y="174" width="84" height="42" fill="#DBEAFE" stroke="#CBD5E1"/>
<text x="664" y="200" class="cell-value" text-anchor="middle">14.0</text>
<rect x="706" y="174" width="84" height="42" fill="#DBEAFE" stroke="#CBD5E1"/>
<text x="748" y="200" class="cell-value" text-anchor="middle">14.3</text>
<rect x="790" y="174" width="84" height="42" fill="#BBF7D0" stroke="#CBD5E1"/>
<text x="832" y="200" class="cell-value" text-anchor="middle">14.4</text>
<rect x="874" y="174" width="84" height="42" fill="#F3F4F6" stroke="#CBD5E1"/>
<text x="916" y="200" class="muted" text-anchor="middle">—</text>
<rect x="36" y="216" width="82" height="42" fill="#EEF2FF" stroke="#CBD5E1"/>
<text x="77" y="242" class="header" text-anchor="middle">2018</text>
<rect x="118" y="216" width="84" height="42" fill="#DBEAFE" stroke="#CBD5E1"/>
<text x="160" y="242" class="cell-value" text-anchor="middle">6.6</text>
<rect x="202" y="216" width="84" height="42" fill="#DBEAFE" stroke="#CBD5E1"/>
<text x="244" y="242" class="cell-value" text-anchor="middle">10.4</text>
<rect x="286" y="216" width="84" height="42" fill="#DBEAFE" stroke="#CBD5E1"/>
<text x="328" y="242" class="cell-value" text-anchor="middle">13.2</text>
<rect x="370" y="216" width="84" height="42" fill="#DBEAFE" stroke="#CBD5E1"/>
<text x="412" y="242" class="cell-value" text-anchor="middle">14.9</text>
<rect x="454" y="216" width="84" height="42" fill="#DBEAFE" stroke="#CBD5E1"/>
<text x="496" y="242" class="cell-value" text-anchor="middle">16.3</text>
<rect x="538" y="216" width="84" height="42" fill="#DBEAFE" stroke="#CBD5E1"/>
<text x="580" y="242" class="cell-value" text-anchor="middle">17.1</text>
<rect x="622" y="216" width="84" height="42" fill="#DBEAFE" stroke="#CBD5E1"/>
<text x="664" y="242" class="cell-value" text-anchor="middle">17.5</text>
<rect x="706" y="216" width="84" height="42" fill="#BBF7D0" stroke="#CBD5E1"/>
<text x="748" y="242" class="cell-value" text-anchor="middle">17.9</text>
<rect x="790" y="216" width="84" height="42" fill="#F3F4F6" stroke="#CBD5E1"/>
<text x="832" y="242" class="muted" text-anchor="middle">—</text>
<rect x="874" y="216" width="84" height="42" fill="#F3F4F6" stroke="#CBD5E1"/>
<text x="916" y="242" class="muted" text-anchor="middle">—</text>
<rect x="36" y="258" width="82" height="42" fill="#EEF2FF" stroke="#CBD5E1"/>
<text x="77" y="284" class="header" text-anchor="middle">2019</text>
<rect x="118" y="258" width="84" height="42" fill="#DBEAFE" stroke="#CBD5E1"/>
<text x="160" y="284" class="cell-value" text-anchor="middle">8.1</text>
<rect x="202" y="258" width="84" height="42" fill="#DBEAFE" stroke="#CBD5E1"/>
<text x="244" y="284" class="cell-value" text-anchor="middle">13.2</text>
<rect x="286" y="258" width="84" height="42" fill="#DBEAFE" stroke="#CBD5E1"/>
<text x="328" y="284" class="cell-value" text-anchor="middle">17.0</text>
<rect x="370" y="258" width="84" height="42" fill="#DBEAFE" stroke="#CBD5E1"/>
<text x="412" y="284" class="cell-value" text-anchor="middle">19.1</text>
<rect x="454" y="258" width="84" height="42" fill="#DBEAFE" stroke="#CBD5E1"/>
<text x="496" y="284" class="cell-value" text-anchor="middle">20.5</text>
<rect x="538" y="258" width="84" height="42" fill="#DBEAFE" stroke="#CBD5E1"/>
<text x="580" y="284" class="cell-value" text-anchor="middle">21.5</text>
<rect x="622" y="258" width="84" height="42" fill="#BBF7D0" stroke="#CBD5E1"/>
<text x="664" y="284" class="cell-value" text-anchor="middle">22.1</text>
<rect x="706" y="258" width="84" height="42" fill="#F3F4F6" stroke="#CBD5E1"/>
<text x="748" y="284" class="muted" text-anchor="middle">—</text>
<rect x="790" y="258" width="84" height="42" fill="#F3F4F6" stroke="#CBD5E1"/>
<text x="832" y="284" class="muted" text-anchor="middle">—</text>
<rect x="874" y="258" width="84" height="42" fill="#F3F4F6" stroke="#CBD5E1"/>
<text x="916" y="284" class="muted" text-anchor="middle">—</text>
<rect x="36" y="300" width="82" height="42" fill="#EEF2FF" stroke="#CBD5E1"/>
<text x="77" y="326" class="header" text-anchor="middle">2020</text>
<rect x="118" y="300" width="84" height="42" fill="#DBEAFE" stroke="#CBD5E1"/>
<text x="160" y="326" class="cell-value" text-anchor="middle">8.8</text>
<rect x="202" y="300" width="84" height="42" fill="#DBEAFE" stroke="#CBD5E1"/>
<text x="244" y="326" class="cell-value" text-anchor="middle">15.1</text>
<rect x="286" y="300" width="84" height="42" fill="#DBEAFE" stroke="#CBD5E1"/>
<text x="328" y="326" class="cell-value" text-anchor="middle">18.8</text>
<rect x="370" y="300" width="84" height="42" fill="#DBEAFE" stroke="#CBD5E1"/>
<text x="412" y="326" class="cell-value" text-anchor="middle">21.1</text>
<rect x="454" y="300" width="84" height="42" fill="#DBEAFE" stroke="#CBD5E1"/>
<text x="496" y="326" class="cell-value" text-anchor="middle">22.7</text>
<rect x="538" y="300" width="84" height="42" fill="#BBF7D0" stroke="#CBD5E1"/>
<text x="580" y="326" class="cell-value" text-anchor="middle">23.8</text>
<rect x="622" y="300" width="84" height="42" fill="#F3F4F6" stroke="#CBD5E1"/>
<text x="664" y="326" class="muted" text-anchor="middle">—</text>
<rect x="706" y="300" width="84" height="42" fill="#F3F4F6" stroke="#CBD5E1"/>
<text x="748" y="326" class="muted" text-anchor="middle">—</text>
<rect x="790" y="300" width="84" height="42" fill="#F3F4F6" stroke="#CBD5E1"/>
<text x="832" y="326" class="muted" text-anchor="middle">—</text>
<rect x="874" y="300" width="84" height="42" fill="#F3F4F6" stroke="#CBD5E1"/>
<text x="916" y="326" class="muted" text-anchor="middle">—</text>
<rect x="36" y="342" width="82" height="42" fill="#EEF2FF" stroke="#CBD5E1"/>
<text x="77" y="368" class="header" text-anchor="middle">2021</text>
<rect x="118" y="342" width="84" height="42" fill="#DBEAFE" stroke="#CBD5E1"/>
<text x="160" y="368" class="cell-value" text-anchor="middle">9.0</text>
<rect x="202" y="342" width="84" height="42" fill="#DBEAFE" stroke="#CBD5E1"/>
<text x="244" y="368" class="cell-value" text-anchor="middle">14.6</text>
<rect x="286" y="342" width="84" height="42" fill="#DBEAFE" stroke="#CBD5E1"/>
<text x="328" y="368" class="cell-value" text-anchor="middle">18.7</text>
<rect x="370" y="342" width="84" height="42" fill="#DBEAFE" stroke="#CBD5E1"/>
<text x="412" y="368" class="cell-value" text-anchor="middle">21.0</text>
<rect x="454" y="342" width="84" height="42" fill="#BBF7D0" stroke="#CBD5E1"/>
<text x="496" y="368" class="cell-value" text-anchor="middle">22.4</text>
<rect x="538" y="342" width="84" height="42" fill="#F3F4F6" stroke="#CBD5E1"/>
<text x="580" y="368" class="muted" text-anchor="middle">—</text>
<rect x="622" y="342" width="84" height="42" fill="#F3F4F6" stroke="#CBD5E1"/>
<text x="664" y="368" class="muted" text-anchor="middle">—</text>
<rect x="706" y="342" width="84" height="42" fill="#F3F4F6" stroke="#CBD5E1"/>
<text x="748" y="368" class="muted" text-anchor="middle">—</text>
<rect x="790" y="342" width="84" height="42" fill="#F3F4F6" stroke="#CBD5E1"/>
<text x="832" y="368" class="muted" text-anchor="middle">—</text>
<rect x="874" y="342" width="84" height="42" fill="#F3F4F6" stroke="#CBD5E1"/>
<text x="916" y="368" class="muted" text-anchor="middle">—</text>
<rect x="36" y="384" width="82" height="42" fill="#EEF2FF" stroke="#CBD5E1"/>
<text x="77" y="410" class="header" text-anchor="middle">2022</text>
<rect x="118" y="384" width="84" height="42" fill="#DBEAFE" stroke="#CBD5E1"/>
<text x="160" y="410" class="cell-value" text-anchor="middle">10.4</text>
<rect x="202" y="384" width="84" height="42" fill="#DBEAFE" stroke="#CBD5E1"/>
<text x="244" y="410" class="cell-value" text-anchor="middle">17.3</text>
<rect x="286" y="384" width="84" height="42" fill="#DBEAFE" stroke="#CBD5E1"/>
<text x="328" y="410" class="cell-value" text-anchor="middle">21.3</text>
<rect x="370" y="384" width="84" height="42" fill="#BBF7D0" stroke="#CBD5E1"/>
<text x="412" y="410" class="cell-value" text-anchor="middle">23.9</text>
<rect x="454" y="384" width="84" height="42" fill="#F3F4F6" stroke="#CBD5E1"/>
<text x="496" y="410" class="muted" text-anchor="middle">—</text>
<rect x="538" y="384" width="84" height="42" fill="#F3F4F6" stroke="#CBD5E1"/>
<text x="580" y="410" class="muted" text-anchor="middle">—</text>
<rect x="622" y="384" width="84" height="42" fill="#F3F4F6" stroke="#CBD5E1"/>
<text x="664" y="410" class="muted" text-anchor="middle">—</text>
<rect x="706" y="384" width="84" height="42" fill="#F3F4F6" stroke="#CBD5E1"/>
<text x="748" y="410" class="muted" text-anchor="middle">—</text>
<rect x="790" y="384" width="84" height="42" fill="#F3F4F6" stroke="#CBD5E1"/>
<text x="832" y="410" class="muted" text-anchor="middle">—</text>
<rect x="874" y="384" width="84" height="42" fill="#F3F4F6" stroke="#CBD5E1"/>
<text x="916" y="410" class="muted" text-anchor="middle">—</text>
<rect x="36" y="426" width="82" height="42" fill="#EEF2FF" stroke="#CBD5E1"/>
<text x="77" y="452" class="header" text-anchor="middle">2023</text>
<rect x="118" y="426" width="84" height="42" fill="#DBEAFE" stroke="#CBD5E1"/>
<text x="160" y="452" class="cell-value" text-anchor="middle">9.7</text>
<rect x="202" y="426" width="84" height="42" fill="#DBEAFE" stroke="#CBD5E1"/>
<text x="244" y="452" class="cell-value" text-anchor="middle">16.8</text>
<rect x="286" y="426" width="84" height="42" fill="#BBF7D0" stroke="#CBD5E1"/>
<text x="328" y="452" class="cell-value" text-anchor="middle">23.2</text>
<rect x="370" y="426" width="84" height="42" fill="#F3F4F6" stroke="#CBD5E1"/>
<text x="412" y="452" class="muted" text-anchor="middle">—</text>
<rect x="454" y="426" width="84" height="42" fill="#F3F4F6" stroke="#CBD5E1"/>
<text x="496" y="452" class="muted" text-anchor="middle">—</text>
<rect x="538" y="426" width="84" height="42" fill="#F3F4F6" stroke="#CBD5E1"/>
<text x="580" y="452" class="muted" text-anchor="middle">—</text>
<rect x="622" y="426" width="84" height="42" fill="#F3F4F6" stroke="#CBD5E1"/>
<text x="664" y="452" class="muted" text-anchor="middle">—</text>
<rect x="706" y="426" width="84" height="42" fill="#F3F4F6" stroke="#CBD5E1"/>
<text x="748" y="452" class="muted" text-anchor="middle">—</text>
<rect x="790" y="426" width="84" height="42" fill="#F3F4F6" stroke="#CBD5E1"/>
<text x="832" y="452" class="muted" text-anchor="middle">—</text>
<rect x="874" y="426" width="84" height="42" fill="#F3F4F6" stroke="#CBD5E1"/>
<text x="916" y="452" class="muted" text-anchor="middle">—</text>
<rect x="36" y="468" width="82" height="42" fill="#EEF2FF" stroke="#CBD5E1"/>
<text x="77" y="494" class="header" text-anchor="middle">2024</text>
<rect x="118" y="468" width="84" height="42" fill="#DBEAFE" stroke="#CBD5E1"/>
<text x="160" y="494" class="cell-value" text-anchor="middle">12.2</text>
<rect x="202" y="468" width="84" height="42" fill="#BBF7D0" stroke="#CBD5E1"/>
<text x="244" y="494" class="cell-value" text-anchor="middle">19.5</text>
<rect x="286" y="468" width="84" height="42" fill="#F3F4F6" stroke="#CBD5E1"/>
<text x="328" y="494" class="muted" text-anchor="middle">—</text>
<rect x="370" y="468" width="84" height="42" fill="#F3F4F6" stroke="#CBD5E1"/>
<text x="412" y="494" class="muted" text-anchor="middle">—</text>
<rect x="454" y="468" width="84" height="42" fill="#F3F4F6" stroke="#CBD5E1"/>
<text x="496" y="494" class="muted" text-anchor="middle">—</text>
<rect x="538" y="468" width="84" height="42" fill="#F3F4F6" stroke="#CBD5E1"/>
<text x="580" y="494" class="muted" text-anchor="middle">—</text>
<rect x="622" y="468" width="84" height="42" fill="#F3F4F6" stroke="#CBD5E1"/>
<text x="664" y="494" class="muted" text-anchor="middle">—</text>
<rect x="706" y="468" width="84" height="42" fill="#F3F4F6" stroke="#CBD5E1"/>
<text x="748" y="494" class="muted" text-anchor="middle">—</text>
<rect x="790" y="468" width="84" height="42" fill="#F3F4F6" stroke="#CBD5E1"/>
<text x="832" y="494" class="muted" text-anchor="middle">—</text>
<rect x="874" y="468" width="84" height="42" fill="#F3F4F6" stroke="#CBD5E1"/>
<text x="916" y="494" class="muted" text-anchor="middle">—</text>
<rect x="36" y="510" width="82" height="42" fill="#EEF2FF" stroke="#CBD5E1"/>
<text x="77" y="536" class="header" text-anchor="middle">2025</text>
<rect x="118" y="510" width="84" height="42" fill="#BBF7D0" stroke="#CBD5E1"/>
<text x="160" y="536" class="cell-value" text-anchor="middle">15.9</text>
<rect x="202" y="510" width="84" height="42" fill="#F3F4F6" stroke="#CBD5E1"/>
<text x="244" y="536" class="muted" text-anchor="middle">—</text>
<rect x="286" y="510" width="84" height="42" fill="#F3F4F6" stroke="#CBD5E1"/>
<text x="328" y="536" class="muted" text-anchor="middle">—</text>
<rect x="370" y="510" width="84" height="42" fill="#F3F4F6" stroke="#CBD5E1"/>
<text x="412" y="536" class="muted" text-anchor="middle">—</text>
<rect x="454" y="510" width="84" height="42" fill="#F3F4F6" stroke="#CBD5E1"/>
<text x="496" y="536" class="muted" text-anchor="middle">—</text>
<rect x="538" y="510" width="84" height="42" fill="#F3F4F6" stroke="#CBD5E1"/>
<text x="580" y="536" class="muted" text-anchor="middle">—</text>
<rect x="622" y="510" width="84" height="42" fill="#F3F4F6" stroke="#CBD5E1"/>
<text x="664" y="536" class="muted" text-anchor="middle">—</text>
<rect x="706" y="510" width="84" height="42" fill="#F3F4F6" stroke="#CBD5E1"/>
<text x="748" y="536" class="muted" text-anchor="middle">—</text>
<rect x="790" y="510" width="84" height="42" fill="#F3F4F6" stroke="#CBD5E1"/>
<text x="832" y="536" class="muted" text-anchor="middle">—</text>
<rect x="874" y="510" width="84" height="42" fill="#F3F4F6" stroke="#CBD5E1"/>
<text x="916" y="536" class="muted" text-anchor="middle">—</text>
<rect x="118" y="586" width="16" height="16" fill="#DBEAFE" stroke="#CBD5E1"/>
<text x="140" y="599" font-size="11" fill="#111827">Observado</text>
<rect x="336" y="586" width="16" height="16" fill="#BBF7D0" stroke="#CBD5E1"/>
<text x="358" y="599" font-size="11" fill="#111827">Última diagonal observada</text>
<rect x="554" y="586" width="16" height="16" fill="#F3F4F6" stroke="#CBD5E1"/>
<text x="576" y="599" font-size="11" fill="#111827">No observado / futuro</text>
</svg>